<?xml version="1.0" encoding="utf-8"?>
<!-- Generator: Adobe Illustrator 28.0.0, SVG Export Plug-In . SVG Version: 6.00 Build 0)  -->
<svg version="1.1" id="Layer_1" xmlns="http://www.w3.org/2000/svg" xmlns:xlink="http://www.w3.org/1999/xlink" x="0px" y="0px"
	 viewBox="0 0 512 512" style="enable-background:new 0 0 512 512;" xml:space="preserve">
<style type="text/css">
	.st0{fill:#64FFDA;}
</style>
<path class="st0" d="M304,32c0-17.7-14.3-32-32-32s-32,14.3-32,32v208c0,8.8-7.2,16-16,16s-16-7.2-16-16V64c0-17.7-14.3-32-32-32
	s-32,14.3-32,32v272c0,1.5,0,3.1,0.1,4.6L83.6,283c-16-15.2-41.3-14.6-56.6,1.4s-14.6,41.3,1.4,56.6l112.4,107
	c43.1,41.1,100.4,64,160,64H320c97.2,0,176-78.8,176-176V128c0-17.7-14.3-32-32-32s-32,14.3-32,32v112c0,8.8-7.2,16-16,16
	s-16-7.2-16-16V64c0-17.7-14.3-32-32-32s-32,14.3-32,32v176c0,8.8-7.2,16-16,16s-16-7.2-16-16V32z"/>
</svg>
