<?xml version="1.0" encoding="utf-8"?>
<!-- Generator: Adobe Illustrator 28.0.0, SVG Export Plug-In . SVG Version: 6.00 Build 0)  -->
<svg version="1.1" id="Layer_1" xmlns="http://www.w3.org/2000/svg" xmlns:xlink="http://www.w3.org/1999/xlink" x="0px" y="0px"
	 viewBox="0 0 512 512" style="enable-background:new 0 0 512 512;" xml:space="preserve">
<style type="text/css">
	.st0{fill:#64FFDA;}
</style>
<path class="st0" d="M224,0c17.7,0,32,14.3,32,32v112h-64V32C192,14.3,206.3,0,224,0z M96,64c0-17.7,14.3-32,32-32s32,14.3,32,32v80
	H96V64z M288,64c0-17.7,14.3-32,32-32s32,14.3,32,32v96c0,17.7-14.3,32-32,32s-32-14.3-32-32V64z M384,128c0-17.7,14.3-32,32-32
	s32,14.3,32,32v64c0,17.7-14.3,32-32,32s-32-14.3-32-32V128z M288,216v-0.6c9.4,5.4,20.3,8.6,32,8.6c13.2,0,25.4-4,35.6-10.8
	c8.7,24.9,32.5,42.8,60.4,42.8c11.7,0,22.6-3.1,32-8.6v8.6c0,52.3-25.1,98.8-64,128v96c0,17.7-14.3,32-32,32H192
	c-17.7,0-32-14.3-32-32v-78.4c-17.3-7.9-33.2-18.8-46.9-32.5l-11.6-11.6c-24-24-37.5-56.6-37.5-90.5v-27c0-35.3,28.7-64,64-64h88
	c22.1,0,40,17.9,40,40s-17.9,40-40,40h-56c-8.8,0-16,7.2-16,16s7.2,16,16,16h56C255.8,288,288,255.8,288,216z"/>
</svg>
