<?xml version="1.0" encoding="utf-8"?>
<!-- Generator: Adobe Illustrator 28.0.0, SVG Export Plug-In . SVG Version: 6.00 Build 0)  -->
<svg version="1.1" id="Layer_1" xmlns="http://www.w3.org/2000/svg" xmlns:xlink="http://www.w3.org/1999/xlink" x="0px" y="0px"
	 viewBox="0 0 512 512" style="enable-background:new 0 0 512 512;" xml:space="preserve">
<style type="text/css">
	.st0{fill:#64FFDA;}
</style>
<path class="st0" d="M208,40c0-22.1,17.9-40,40-40s40,17.9,40,40v180.2c8.5-7.6,19.7-12.2,32-12.2c25.3,0,46,19.5,47.9,44.3
	c8.5-7.7,19.8-12.3,32.1-12.3c26.5,0,48,21.5,48,48v32v64c0,70.7-57.3,128-128,128H206.9c-40.2,0-78.8-16-107.3-44.4
	C76.8,444.8,64,413.9,64,381.7V336c0-21.3,13.9-39.3,33.1-45.6l23.7,74.5c2.7,8.4,11.7,13.1,20.1,10.4s13.1-11.7,10.4-20.1
	L129.9,288h0.1L65.8,84C59.2,62.9,70.9,40.5,92,33.8s43.5,5.1,50.2,26.2L208,269.5V40z"/>
</svg>
